<?xml version="1.0" standalone="no"?>
<!DOCTYPE svg PUBLIC "-//W3C//DTD SVG 20010904//EN"
 "http://www.w3.org/TR/2001/REC-SVG-20010904/DTD/svg10.dtd">
<svg version="1.0" xmlns="http://www.w3.org/2000/svg"
 width="912.000000pt" height="912.000000pt" viewBox="0 0 912.000000 912.000000"
 preserveAspectRatio="xMidYMid meet">
<metadata>
Created by potrace 1.14, written by Peter Selinger 2001-2017
</metadata>
<g transform="translate(0.000000,912.000000) scale(0.100000,-0.100000)"
fill="#000000" stroke="none">
<path d="M4540 8339 c-130 -11 -173 -22 -268 -65 -29 -13 -55 -24 -58 -24 -15
0 -156 -104 -197 -146 -80 -80 -185 -255 -204 -339 -1 -5 -5 -23 -8 -40 -3
-16 -10 -44 -14 -61 -9 -32 -7 -234 3 -273 43 -178 115 -307 239 -427 34 -33
84 -75 110 -93 53 -36 184 -99 215 -104 42 -6 47 -20 51 -154 11 -311 2 -877
-13 -902 -4 -6 -2 -11 4 -11 6 0 9 -4 5 -9 -3 -6 -7 -37 -9 -70 -2 -33 -7 -64
-10 -69 -4 -8 -71 -27 -162 -47 -10 -2 -34 -8 -52 -14 -18 -5 -35 -10 -37 -10
-9 -1 -47 -10 -278 -66 -126 -30 -230 -55 -232 -55 -4 0 -43 67 -87 150 -19
36 -50 92 -68 125 -18 33 -53 98 -78 145 -24 47 -48 90 -52 95 -4 6 -33 60
-65 120 -32 61 -69 130 -83 155 -14 25 -43 79 -65 120 -22 41 -43 80 -46 85
-27 40 -30 64 -10 87 64 73 168 259 204 363 21 63 45 176 39 186 -2 4 0 19 6
33 6 16 6 27 0 31 -7 4 -7 13 0 24 5 10 7 20 5 23 -3 3 -8 25 -11 49 -13 108
-72 246 -147 344 -53 69 -202 205 -225 205 -6 0 -12 3 -14 8 -4 9 -125 66
-131 61 -2 -2 -10 1 -18 7 -13 11 -52 23 -94 30 -11 1 -31 6 -45 9 -40 10
-199 13 -244 4 -23 -4 -54 -10 -71 -12 -87 -15 -210 -72 -302 -139 -154 -112
-278 -309 -309 -489 -18 -103 -12 -263 14 -359 5 -19 11 -42 13 -50 6 -23 91
-192 108 -214 33 -43 170 -174 197 -189 107 -58 208 -98 279 -111 17 -3 48 -8
70 -12 22 -4 106 -8 186 -8 l147 -1 14 -30 c8 -16 37 -73 65 -125 49 -92 77
-146 206 -390 33 -63 80 -151 103 -195 23 -44 70 -133 103 -197 l61 -118 -32
-27 c-17 -16 -42 -38 -55 -50 -13 -12 -56 -50 -95 -85 -39 -35 -83 -74 -98
-88 -15 -14 -49 -45 -76 -69 -27 -24 -78 -70 -114 -102 -139 -124 -135 -122
-165 -89 -10 11 -21 20 -25 20 -6 0 -194 123 -225 147 -10 8 -493 333 -636
428 -83 55 -78 43 -64 160 18 143 8 319 -24 423 -5 18 -10 34 -11 37 -6 27
-30 81 -57 133 -98 185 -305 328 -548 378 -92 19 -314 6 -385 -23 -8 -3 -22
-7 -31 -9 -23 -5 -160 -76 -203 -106 -41 -28 -134 -121 -173 -172 -50 -66
-104 -175 -127 -258 -48 -169 -34 -369 35 -528 11 -25 25 -57 32 -72 6 -16 15
-28 19 -28 5 0 8 -5 8 -11 0 -6 17 -32 37 -57 139 -175 320 -287 498 -307 117
-14 123 -14 285 10 58 8 223 68 325 119 l110 54 50 -31 c28 -17 51 -35 53 -39
2 -5 10 -8 18 -8 8 0 14 -4 14 -8 0 -5 10 -14 23 -20 41 -22 96 -57 117 -74
11 -10 22 -18 24 -18 9 0 191 -124 194 -132 2 -4 7 -8 12 -8 4 0 52 -29 105
-65 53 -36 100 -65 106 -65 5 0 9 -3 9 -7 0 -5 23 -21 50 -38 28 -16 50 -33
50 -37 0 -4 5 -8 11 -8 7 0 34 -16 60 -35 27 -19 52 -35 55 -35 3 0 12 -6 20
-14 7 -8 19 -16 26 -19 9 -3 -1 -33 -35 -100 -27 -53 -48 -99 -47 -102 0 -3
-6 -18 -15 -34 -17 -34 -76 -189 -80 -211 -1 -8 -5 -22 -8 -30 -16 -38 -56
-213 -51 -221 3 -5 1 -9 -4 -9 -5 0 -9 -6 -9 -12 -1 -15 -11 -90 -18 -128 -31
-168 -25 -577 11 -730 3 -14 8 -40 10 -59 3 -19 6 -37 9 -41 2 -4 7 -20 9 -36
11 -55 14 -69 32 -129 10 -33 19 -64 20 -70 5 -22 64 -174 95 -245 49 -111
117 -237 178 -329 20 -29 41 -61 46 -70 6 -9 12 -18 15 -21 3 -3 24 -30 46
-60 59 -79 106 -132 214 -240 109 -109 139 -135 235 -207 39 -29 75 -56 80
-60 21 -16 95 -63 100 -63 2 0 28 -15 57 -34 118 -75 435 -211 542 -232 10 -2
33 -8 50 -13 17 -6 42 -12 56 -15 14 -3 36 -8 50 -11 30 -7 112 -22 160 -29
19 -3 46 -8 60 -10 135 -25 485 -20 650 8 19 3 51 8 70 11 19 2 73 13 120 24
358 82 675 233 965 460 111 87 363 346 399 410 5 9 13 18 16 21 4 3 40 53 79
112 83 124 212 369 225 428 2 11 28 76 35 90 7 14 55 174 68 225 8 35 24 109
29 135 2 14 7 41 10 60 34 179 38 558 9 720 -4 19 -8 46 -10 60 -18 127 -62
292 -119 445 -39 103 -47 120 -99 224 -44 89 -46 97 -30 108 10 7 23 16 28 21
6 4 77 53 160 107 82 55 154 103 160 108 37 28 127 87 135 87 4 0 10 3 12 8 5
10 97 72 108 72 6 0 10 3 10 8 0 4 17 16 37 27 20 11 41 25 47 30 20 19 167
115 175 115 5 0 11 3 13 8 2 4 27 23 57 42 51 32 55 33 80 19 135 -78 306
-147 402 -163 19 -3 45 -8 59 -11 43 -9 193 -6 250 5 101 21 232 82 310 145
72 58 163 162 204 231 75 127 106 241 110 394 2 62 -13 182 -28 225 -1 6 -6
24 -11 40 -11 43 -70 160 -108 214 -55 79 -213 221 -245 221 -6 0 -12 3 -14 8
-3 8 -123 66 -132 64 -3 -1 -25 6 -48 14 -60 21 -99 26 -213 28 -222 5 -428
-77 -583 -232 -112 -112 -201 -274 -218 -396 -2 -16 -8 -43 -12 -60 -15 -54
-5 -225 17 -310 12 -44 21 -83 21 -87 0 -4 -21 -20 -47 -35 -27 -15 -50 -30
-53 -33 -3 -4 -43 -31 -90 -61 -47 -30 -87 -57 -90 -61 -3 -3 -9 -8 -15 -10
-5 -2 -166 -109 -357 -236 -191 -128 -351 -233 -355 -233 -5 0 -33 23 -63 52
-30 28 -107 97 -170 152 -63 55 -129 114 -147 131 -43 41 -148 134 -186 166
l-30 25 19 47 c10 26 22 47 27 47 4 0 7 5 7 11 0 6 9 24 21 40 11 16 17 29 13
29 -3 0 -2 6 3 13 10 11 36 59 118 212 21 39 66 122 100 185 34 63 83 156 110
205 48 90 90 168 127 236 l20 36 132 0 c142 -1 212 6 294 27 29 8 55 14 58 14
2 0 31 10 62 23 116 46 252 149 309 233 16 23 31 43 34 46 15 12 78 151 98
215 26 81 34 142 34 240 0 204 -78 396 -218 540 -174 179 -366 257 -615 250
-229 -6 -406 -87 -577 -262 -106 -110 -179 -263 -200 -424 -8 -67 -8 -180 1
-239 24 -155 112 -332 217 -438 l43 -43 -38 -72 c-20 -40 -53 -99 -71 -132
-19 -33 -39 -69 -44 -80 -5 -11 -45 -86 -89 -167 -44 -82 -77 -148 -74 -148 4
0 2 -4 -4 -8 -6 -4 -33 -47 -59 -97 -26 -49 -53 -101 -61 -115 -8 -14 -39 -72
-70 -130 -31 -58 -58 -106 -59 -108 -2 -2 -31 4 -66 13 -35 10 -73 18 -84 20
-11 2 -49 11 -85 20 -106 26 -144 35 -165 40 -11 2 -67 16 -125 30 -58 15
-113 28 -123 30 -10 2 -27 7 -37 10 -25 8 -63 16 -77 17 -7 1 -13 6 -14 12 0
14 0 1096 0 1153 l1 41 78 38 c144 70 298 187 388 295 95 114 151 279 156 454
2 63 -35 250 -53 272 -7 7 -9 13 -5 13 9 0 -51 116 -87 170 -46 67 -135 158
-197 200 -47 32 -154 92 -170 95 -3 1 -36 11 -75 23 -38 11 -93 23 -122 26
-29 2 -56 6 -60 8 -4 2 -46 1 -93 -3z m166 -384 c64 -18 103 -37 136 -63 214
-171 242 -454 64 -644 -168 -181 -450 -190 -622 -20 -146 144 -173 364 -67
536 63 102 198 192 305 203 29 3 54 6 55 7 7 6 81 -5 129 -19z m-2101 -500
c64 -11 170 -72 217 -125 63 -70 68 -78 68 -95 0 -8 4 -15 9 -15 13 0 41 -98
45 -162 10 -129 -45 -264 -144 -356 -19 -18 -69 -49 -110 -69 -65 -32 -85 -37
-160 -39 -135 -5 -234 33 -326 123 -150 148 -174 384 -56 556 102 148 270 215
457 182z m4154 -6 c76 -17 152 -60 211 -118 55 -54 106 -140 116 -194 2 -15 8
-37 12 -49 12 -36 -2 -195 -18 -215 -2 -2 -3 -6 -4 -10 -7 -40 -122 -193 -145
-193 -4 0 -18 -9 -31 -20 -91 -79 -305 -89 -441 -19 -46 23 -149 117 -149 135
0 8 -3 14 -7 14 -10 0 -29 39 -54 108 -14 41 -18 75 -15 150 2 86 6 105 36
166 32 68 124 176 148 176 7 0 12 5 12 10 0 6 6 10 14 10 7 0 19 7 26 15 7 9
15 13 18 10 3 -3 10 -1 16 5 7 5 27 12 46 15 19 3 36 8 39 11 8 8 126 4 170
-7z m1556 -1403 c208 -25 368 -205 374 -418 2 -87 -12 -153 -48 -223 -28 -55
-132 -165 -156 -165 -8 0 -15 -4 -15 -9 0 -5 -10 -12 -22 -16 -13 -4 -25 -8
-28 -9 -61 -25 -179 -36 -245 -22 -84 18 -166 61 -227 120 -55 53 -109 150
-123 223 -7 34 -7 130 -1 158 13 59 20 81 29 93 5 6 7 12 3 12 -3 0 8 22 25
49 35 59 130 148 165 157 13 3 24 9 24 13 0 9 78 32 130 38 25 3 47 6 48 8 2
2 9 2 15 0 7 -3 30 -7 52 -9z m-7332 -10 c51 -8 151 -44 155 -56 2 -6 9 -10
17 -10 7 0 37 -24 66 -53 181 -180 178 -448 -8 -624 -30 -29 -62 -53 -69 -53
-8 0 -14 -3 -14 -7 0 -9 -68 -38 -125 -52 -48 -12 -153 -9 -210 7 -118 33
-234 138 -282 257 -24 58 -45 170 -35 189 3 5 6 23 8 40 5 61 40 147 77 193
86 104 182 159 295 167 24 2 46 6 49 10 4 3 14 4 22 2 9 -3 33 -7 54 -10z
m3817 -991 c25 -3 64 -7 88 -10 24 -2 61 -9 83 -15 22 -6 52 -13 67 -15 94
-13 325 -100 467 -176 79 -41 245 -150 245 -160 0 -4 8 -10 18 -13 42 -14 256
-227 345 -346 69 -91 136 -192 167 -255 8 -17 18 -32 21 -35 10 -8 98 -224
115 -281 9 -30 20 -64 25 -77 5 -13 9 -34 9 -47 0 -14 5 -25 11 -25 5 0 8 -4
5 -8 -3 -4 -1 -26 4 -48 5 -21 12 -59 16 -84 3 -25 8 -56 11 -70 9 -43 12
-382 3 -430 -4 -25 -10 -65 -13 -90 -3 -25 -13 -79 -22 -120 -9 -41 -18 -79
-19 -85 -1 -5 -4 -14 -8 -20 -3 -5 -9 -26 -13 -45 -18 -84 -107 -281 -189
-420 -42 -71 -50 -83 -63 -98 -7 -7 -13 -17 -13 -21 0 -4 -8 -16 -17 -27 -10
-10 -36 -42 -58 -69 -74 -93 -152 -173 -240 -247 -21 -18 -46 -40 -55 -48 -42
-39 -210 -150 -227 -150 -7 0 -13 -4 -13 -8 0 -7 -191 -104 -210 -108 -3 0
-18 -6 -35 -13 -54 -23 -169 -60 -235 -76 -60 -15 -78 -18 -150 -30 -97 -16
-157 -20 -325 -19 -173 1 -231 4 -305 19 -14 3 -38 8 -55 11 -16 3 -55 12 -85
20 -30 8 -65 17 -77 20 -87 18 -344 132 -446 197 -31 20 -62 37 -67 37 -6 0
-10 3 -10 8 0 4 -18 18 -40 32 -22 14 -40 28 -40 32 0 4 -8 9 -17 12 -28 10
-174 144 -253 233 -74 83 -86 97 -147 184 -70 101 -80 118 -142 240 -48 97
-53 107 -91 209 -25 66 -69 227 -75 269 -2 17 -6 38 -9 48 -3 10 -8 45 -11 78
-4 33 -8 74 -10 90 -6 42 -6 273 0 315 2 19 6 55 9 80 11 88 26 172 41 230 14
53 28 101 37 125 31 88 65 168 100 240 23 44 50 98 61 120 11 22 22 42 26 45
3 3 31 42 61 88 30 45 58 82 62 82 5 0 8 4 8 10 0 19 186 212 281 292 95 80
399 271 399 251 0 -3 6 -1 13 5 25 21 253 105 319 117 11 2 27 6 36 9 9 3 29
8 45 11 15 3 37 7 50 10 26 5 78 12 162 21 33 3 61 7 62 8 5 4 270 -3 313 -9z"/>
</g>
</svg>
